<svg width="16" height="11" viewBox="0 0 16 11" fill="none" xmlns="http://www.w3.org/2000/svg">
<path d="M13.2936 1.293L6.00057 8.58601L2.70757 5.293C2.61532 5.19749 2.50498 5.12131 2.38297 5.0689C2.26097 5.01649 2.12975 4.98891 1.99697 4.98775C1.86419 4.9866 1.73251 5.0119 1.60962 5.06218C1.48672 5.11246 1.37507 5.18672 1.28117 5.28061C1.18728 5.3745 1.11303 5.48615 1.06275 5.60905C1.01247 5.73195 0.987165 5.86363 0.988319 5.99641C0.989473 6.12919 1.01706 6.26041 1.06947 6.38241C1.12188 6.50441 1.19806 6.61476 1.29357 6.707L5.29357 10.707C5.38622 10.8002 5.49638 10.8741 5.61772 10.9246C5.73905 10.9751 5.86916 11.001 6.00057 11.001C6.13198 11.001 6.26209 10.9751 6.38342 10.9246C6.50476 10.8741 6.61492 10.8002 6.70757 10.707L14.7076 2.707C14.8031 2.61476 14.8793 2.50441 14.9317 2.38241C14.9841 2.26041 15.0117 2.12919 15.0128 1.99641C15.014 1.86363 14.9887 1.73195 14.9384 1.60905C14.8881 1.48615 14.8139 1.3745 14.72 1.28061C14.6261 1.18672 14.5144 1.11246 14.3915 1.06218C14.2686 1.0119 14.1369 0.986601 14.0042 0.987754C13.8714 0.988908 13.7402 1.01649 13.6182 1.0689C13.4962 1.12131 13.3858 1.19749 13.2936 1.293Z" fill="#000912"/>
</svg>
