<svg width="17" height="18" viewBox="0 0 17 18" fill="none" xmlns="http://www.w3.org/2000/svg">
<path d="M7.99943 7.58708L14.2924 1.29308C14.3847 1.19757 14.495 1.12139 14.617 1.06898C14.739 1.01657 14.8703 0.988985 15.003 0.987831C15.1358 0.986677 15.2675 1.01198 15.3904 1.06226C15.5133 1.11254 15.6249 1.18679 15.7188 1.28069C15.8127 1.37458 15.887 1.48623 15.9373 1.60913C15.9875 1.73202 16.0128 1.8637 16.0117 1.99648C16.0105 2.12926 15.9829 2.26048 15.9305 2.38249C15.8781 2.50449 15.8019 2.61483 15.7064 2.70708L9.41343 9.00208L15.7064 15.2961C15.8019 15.3883 15.8781 15.4987 15.9305 15.6207C15.9829 15.7427 16.0105 15.8739 16.0117 16.0067C16.0128 16.1395 15.9875 16.2711 15.9373 16.394C15.887 16.5169 15.8127 16.6286 15.7188 16.7225C15.6249 16.8164 15.5133 16.8906 15.3904 16.9409C15.2675 16.9912 15.1358 17.0165 15.003 17.0153C14.8703 17.0142 14.739 16.9866 14.617 16.9342C14.495 16.8818 14.3847 16.8056 14.2924 16.7101L7.99943 10.4161L1.70643 16.7101C1.51783 16.8922 1.26523 16.993 1.00303 16.9908C0.740833 16.9885 0.49002 16.8833 0.304612 16.6979C0.119204 16.5125 0.014035 16.2617 0.0117566 15.9995C0.00947813 15.7373 0.110273 15.4847 0.292431 15.2961L6.58543 9.00208L0.292431 2.70708C0.110273 2.51848 0.00947813 2.26588 0.0117566 2.00368C0.014035 1.74148 0.119204 1.49067 0.304612 1.30526C0.49002 1.11985 0.740833 1.01469 1.00303 1.01241C1.26523 1.01013 1.51783 1.11092 1.70643 1.29308L7.99943 7.58708Z" fill="#001A34"/>
</svg>
