<svg width="24" height="24" viewBox="0 0 24 24" fill="none" xmlns="http://www.w3.org/2000/svg">
<rect width="24" height="24" rx="12" fill="#000912"/>
<g clip-path="url(#clip0)">
<path d="M16.9497 7.05033C17.1373 7.23787 17.2426 7.49222 17.2426 7.75744C17.2426 8.02266 17.1373 8.27701 16.9497 8.46455L13.4142 12.0001L16.9497 15.5356C17.1373 15.7232 17.2426 15.9775 17.2426 16.2427C17.2426 16.5079 17.1373 16.7623 16.9497 16.9498C16.7622 17.1374 16.5079 17.2427 16.2426 17.2427C15.9774 17.2427 15.7231 17.1374 15.5355 16.9498L12 13.4143L8.46447 16.9498C8.27693 17.1374 8.02258 17.2427 7.75736 17.2427C7.49214 17.2427 7.23779 17.1374 7.05025 16.9498C6.86272 16.7623 6.75736 16.5079 6.75736 16.2427C6.75736 15.9775 6.86272 15.7232 7.05025 15.5356L10.5858 12.0001L7.05025 8.46455C6.86272 8.27701 6.75736 8.02266 6.75736 7.75744C6.75736 7.49222 6.86272 7.23787 7.05025 7.05033C7.23779 6.8628 7.49214 6.75744 7.75736 6.75744C8.02258 6.75744 8.27693 6.8628 8.46447 7.05033L12 10.5859L15.5355 7.05033C15.7231 6.8628 15.9774 6.75744 16.2426 6.75744C16.5079 6.75744 16.7622 6.8628 16.9497 7.05033Z" fill="white"/>
</g>
<defs>
<clipPath id="clip0">
<rect width="16" height="16" fill="white" transform="translate(4 4)"/>
</clipPath>
</defs>
</svg>
