<svg width="38" height="38" viewBox="0 0 38 38" fill="none" xmlns="http://www.w3.org/2000/svg">
<path fill-rule="evenodd" clip-rule="evenodd" d="M0 30C0 34.4183 3.58172 38 8 38H30C34.4183 38 38 34.4183 38 30V8C38 3.58172 34.4183 0 30 0H8C3.58172 0 0 3.58172 0 8V30Z" fill="#15171F"/>
<path fill-rule="evenodd" clip-rule="evenodd" d="M21.5739 8.49998H21.5709H21.5629C18.7149 8.49998 16.7619 10.231 16.7619 13.435V16.19H13.5469V19.936H16.7619V29.5H20.6259V19.936H23.8419L24.3369 16.19H20.6369V13.806C20.6369 12.729 20.9369 11.988 22.4879 11.988H24.4529V8.64798C23.4959 8.54598 22.5349 8.49598 21.5739 8.49998Z" fill="white"/>
</svg>
