<svg width="38" height="38" viewBox="0 0 38 38" fill="none" xmlns="http://www.w3.org/2000/svg">
<path fill-rule="evenodd" clip-rule="evenodd" d="M0 30C0 34.4183 3.58172 38 8 38H30C34.4183 38 38 34.4183 38 30V8C38 3.58172 34.4183 0 30 0H8C3.58172 0 0 3.58172 0 8V30Z" fill="#15171F"/>
<path fill-rule="evenodd" clip-rule="evenodd" d="M27.547 23.2432C27.5 24.2662 27.329 24.8222 27.186 25.1922C26.995 25.6822 26.768 26.0322 26.401 26.3992C26.032 26.7672 25.683 26.9952 25.193 27.1852C24.822 27.3292 24.267 27.5002 23.243 27.5472C22.136 27.5972 21.804 27.6082 19 27.6082C16.196 27.6082 15.864 27.5972 14.757 27.5472C13.734 27.5002 13.178 27.3292 12.808 27.1852C12.318 26.9952 11.968 26.7672 11.6 26.3992C11.233 26.0322 11.005 25.6822 10.815 25.1922C10.671 24.8222 10.5 24.2662 10.453 23.2432C10.402 22.1362 10.392 21.8042 10.392 19.0002C10.392 16.1962 10.402 15.8642 10.453 14.7572C10.5 13.7332 10.671 13.1782 10.815 12.8072C11.005 12.3172 11.233 11.9682 11.6 11.5992C11.968 11.2322 12.318 11.0052 12.808 10.8142C13.178 10.6712 13.734 10.5002 14.757 10.4532C15.864 10.4022 16.196 10.3912 19 10.3912C21.804 10.3912 22.136 10.4022 23.243 10.4532C24.267 10.5002 24.822 10.6712 25.193 10.8142C25.683 11.0052 26.032 11.2322 26.401 11.5992C26.768 11.9682 26.995 12.3172 27.186 12.8072C27.329 13.1782 27.5 13.7332 27.547 14.7572C27.598 15.8642 27.609 16.1962 27.609 19.0002C27.609 21.8042 27.598 22.1362 27.547 23.2432ZM29.437 14.6712C29.386 13.5532 29.208 12.7902 28.949 12.1222C28.681 11.4312 28.321 10.8462 27.737 10.2632C27.154 9.67924 26.568 9.31924 25.878 9.05124C25.21 8.79224 24.447 8.61424 23.329 8.56324C22.209 8.51224 21.852 8.50024 19 8.50024C16.149 8.50024 15.791 8.51224 14.671 8.56324C13.553 8.61424 12.79 8.79224 12.122 9.05124C11.432 9.31924 10.846 9.67924 10.263 10.2632C9.679 10.8462 9.319 11.4312 9.052 12.1222C8.792 12.7902 8.614 13.5532 8.564 14.6712C8.512 15.7912 8.5 16.1482 8.5 19.0002C8.5 21.8512 8.512 22.2092 8.564 23.3292C8.614 24.4472 8.792 25.2102 9.052 25.8782C9.319 26.5682 9.679 27.1542 10.263 27.7372C10.846 28.3212 11.432 28.6802 12.122 28.9492C12.79 29.2082 13.553 29.3862 14.671 29.4362C15.791 29.4882 16.149 29.5002 19 29.5002C21.852 29.5002 22.209 29.4882 23.329 29.4362C24.447 29.3862 25.21 29.2082 25.878 28.9492C26.568 28.6802 27.154 28.3212 27.737 27.7372C28.321 27.1542 28.681 26.5682 28.949 25.8782C29.208 25.2102 29.386 24.4472 29.437 23.3292C29.488 22.2092 29.5 21.8512 29.5 19.0002C29.5 16.1482 29.488 15.7912 29.437 14.6712ZM24.605 12.1352C23.909 12.1352 23.345 12.6992 23.345 13.3952C23.345 14.0912 23.909 14.6552 24.605 14.6552C25.301 14.6552 25.865 14.0912 25.865 13.3952C25.865 12.6992 25.301 12.1352 24.605 12.1352ZM19 22.5002C17.068 22.5002 15.5 20.9322 15.5 19.0002C15.5 17.0662 17.068 15.5002 19 15.5002C20.933 15.5002 22.5 17.0662 22.5 19.0002C22.5 20.9322 20.933 22.5002 19 22.5002ZM19 13.6082C16.023 13.6082 13.609 16.0222 13.609 19.0002C13.609 21.9772 16.023 24.3912 19 24.3912C21.978 24.3912 24.392 21.9772 24.392 19.0002C24.392 16.0222 21.978 13.6082 19 13.6082Z" fill="white"/>
</svg>
