<svg width="250" height="32" viewBox="0 0 250 32" fill="none" xmlns="http://www.w3.org/2000/svg">
<g clip-path="url(#clip0)">
<path d="M14.245 2C6.40124 2 0 8.38495 0 16.2088C0 24.0326 6.40124 30.4175 14.245 30.4175C22.1789 30.4175 28.49 24.0326 28.49 16.2088C28.49 8.38495 22.1789 2 14.245 2ZM14.245 23.8527C10.0076 23.8527 6.58156 20.4354 6.58156 16.2088C6.58156 11.9821 10.0076 8.56481 14.245 8.56481C18.4824 8.56481 21.9085 11.9821 21.9085 16.2088C21.9085 20.4354 18.4824 23.8527 14.245 23.8527ZM79.9704 2C68.8809 2 59.9553 8.38495 59.9553 16.2088C59.9553 24.0326 68.8809 30.4175 79.9704 30.4175C91.0599 30.4175 99.9855 24.0326 99.9855 16.2088C99.9855 8.38495 90.9697 2 79.9704 2ZM79.9704 23.8527C72.3069 23.8527 66.627 19.8059 66.627 16.2987C66.627 12.7915 72.3069 8.74467 79.9704 8.74467C87.6339 8.74467 93.3138 12.7915 93.3138 16.2987C93.3138 19.8059 87.5437 23.8527 79.9704 23.8527ZM127.664 2.6295C125.861 2.6295 124.328 4.15829 124.328 5.95687V17.1081L106.297 2.80936C105.666 2.26979 104.764 2.71943 104.764 3.52879V26.4607C104.764 28.2592 106.297 29.788 108.1 29.788C109.903 29.788 111.436 28.2592 111.436 26.4607V15.3994L129.467 29.6981C130.098 30.2377 131 29.788 131 28.9787V5.95687C131 4.15829 129.467 2.6295 127.664 2.6295ZM54.7261 23.2232H43.3661L57.7915 4.15829C58.2423 3.52879 57.7915 2.6295 57.0702 2.6295H36.1535C34.3503 2.6295 32.8176 4.15829 32.8176 5.95687C32.8176 7.75545 34.3503 9.28424 36.1535 9.28424H45.6201L31.1046 28.3492C30.6538 28.9787 31.1046 29.878 31.916 29.878H54.7261C56.5292 29.878 58.0619 28.3492 58.0619 26.5506C58.0619 24.752 56.5292 23.2232 54.7261 23.2232Z" fill="white"/>
</g>
<path d="M203.788 17.5789C201.772 17.5789 200.499 18.7368 199.863 20.5263V18H197.317V29.6842H199.863V24.5263C199.863 21.7895 201.136 20.6316 203.576 20.6316H204V17.6842H203.788V17.5789ZM188.405 17.5789C184.586 17.5789 182.358 20.3158 182.358 23.7895C182.358 27.4737 184.798 30 188.511 30C191.376 30 192.967 28.4211 193.816 27.2632L192.012 25.5789C191.376 26.3158 190.315 27.5789 188.405 27.5789C186.39 27.5789 184.904 26.2105 184.798 24.1053H193.922V23.6842C194.028 20 192.012 17.5789 188.405 17.5789ZM185.01 22.4211C185.329 20.7368 186.496 19.8947 188.193 19.8947C189.997 19.8947 191.163 20.8421 191.27 22.4211H185.01ZM160.61 17.5789C156.791 17.5789 154.563 20.3158 154.563 23.7895C154.563 27.4737 157.003 30 160.717 30C163.581 30 165.172 28.4211 166.021 27.2632L164.217 25.5789C163.581 26.3158 162.52 27.5789 160.61 27.5789C158.595 27.5789 157.11 26.2105 157.003 24.1053H166.127V23.6842C166.233 20 164.217 17.5789 160.61 17.5789ZM157.216 22.4211C157.534 20.7368 158.701 19.8947 160.398 19.8947C162.202 19.8947 163.369 20.8421 163.475 22.4211H157.216ZM149.896 23.1579L147.668 22.1053C146.607 21.5789 146.289 21.2632 146.289 20.7368C146.289 20.2105 146.607 19.8947 147.774 19.8947C148.941 19.8947 150.002 20.3158 150.957 20.6316L152.017 18.5263C150.744 18 149.259 17.5789 147.986 17.5789C145.44 17.5789 143.849 18.7368 143.849 20.8421C143.849 22.2105 144.485 23.3684 146.289 24.2105L148.41 25.2632C149.365 25.7895 149.683 26.1053 149.683 26.5263C149.683 27.2632 149.047 27.5789 147.88 27.5789C146.501 27.5789 145.228 27.0526 144.167 26.4211L143 28.6316C144.273 29.5789 145.97 30 147.668 30C150.426 30 152.23 28.8421 152.23 26.4211C152.336 24.9474 151.487 23.8947 149.896 23.1579ZM169.628 29.6842H172.174V12H169.628V29.6842ZM176.523 29.6842H179.07V12H176.523V29.6842Z" fill="white"/>
<defs>
<clipPath id="clip0">
<rect width="131" height="28" fill="white" transform="translate(0 2)"/>
</clipPath>
</defs>
</svg>
