<svg width="40" height="40" viewBox="0 0 40 40" fill="none" xmlns="http://www.w3.org/2000/svg">
<rect width="40" height="40" rx="20" fill="white"/>
<path d="M28.8889 25C29.1836 25 29.4662 25.1054 29.6746 25.2929C29.8829 25.4804 30 25.7348 30 26C30 26.2652 29.8829 26.5196 29.6746 26.7071C29.4662 26.8946 29.1836 27 28.8889 27H11.1111C10.8164 27 10.5338 26.8946 10.3254 26.7071C10.1171 26.5196 10 26.2652 10 26C10 25.7348 10.1171 25.4804 10.3254 25.2929C10.5338 25.1054 10.8164 25 11.1111 25H28.8889ZM28.8889 19C29.1836 19 29.4662 19.1054 29.6746 19.2929C29.8829 19.4804 30 19.7348 30 20C30 20.2652 29.8829 20.5196 29.6746 20.7071C29.4662 20.8946 29.1836 21 28.8889 21H11.1111C10.8164 21 10.5338 20.8946 10.3254 20.7071C10.1171 20.5196 10 20.2652 10 20C10 19.7348 10.1171 19.4804 10.3254 19.2929C10.5338 19.1054 10.8164 19 11.1111 19H28.8889ZM28.8889 13C29.1836 13 29.4662 13.1054 29.6746 13.2929C29.8829 13.4804 30 13.7348 30 14C30 14.2652 29.8829 14.5196 29.6746 14.7071C29.4662 14.8946 29.1836 15 28.8889 15H11.1111C10.8164 15 10.5338 14.8946 10.3254 14.7071C10.1171 14.5196 10 14.2652 10 14C10 13.7348 10.1171 13.4804 10.3254 13.2929C10.5338 13.1054 10.8164 13 11.1111 13H28.8889Z" fill="#001A34"/>
</svg>
