<svg width="38" height="38" viewBox="0 0 38 38" fill="none" xmlns="http://www.w3.org/2000/svg">
<path fill-rule="evenodd" clip-rule="evenodd" d="M0 30C0 34.4183 3.58172 38 8 38H30C34.4183 38 38 34.4183 38 30V8C38 3.58172 34.4183 0 30 0H8C3.58172 0 0 3.58172 0 8V30Z" fill="#15171F"/>
<g clip-path="url(#clip0)">
<path d="M29 12.7723C28.2664 13.0784 27.4803 13.2718 26.6419 13.3684C27.4978 12.9012 28.1441 12.16 28.4585 11.2739C27.6725 11.7089 26.7817 12.015 25.8559 12.1923C25.1048 11.4672 24.0393 11 22.8515 11C20.5808 11 18.7467 12.6917 18.7467 14.7863C18.7467 15.0924 18.7817 15.3824 18.8515 15.6563C15.4454 15.4791 12.4061 13.9807 10.3974 11.6928C10.048 12.2406 9.83843 12.9012 9.83843 13.594C9.83843 14.899 10.5546 16.0591 11.655 16.7358C10.9913 16.7197 10.345 16.5424 9.80349 16.2685V16.3169C9.80349 18.1536 11.2183 19.6842 13.0873 20.0226C12.7555 20.1031 12.3886 20.1515 12.0044 20.1515C11.7424 20.1515 11.4803 20.1353 11.2358 20.087C11.7598 21.5854 13.262 22.681 15.0786 22.7132C13.6812 23.7282 11.8996 24.3405 9.97817 24.3405C9.64629 24.3405 9.31441 24.3244 9 24.276C10.8166 25.3555 12.9651 25.9839 15.2882 25.9839C22.8341 25.9839 26.9738 20.2159 26.9738 15.2052L26.9563 14.7218C27.7598 14.2062 28.4585 13.5295 29 12.7723Z" fill="white"/>
</g>
<defs>
<clipPath id="clip0">
<rect x="9" y="11" width="20" height="15" fill="white"/>
</clipPath>
</defs>
</svg>
