<svg width="38" height="38" viewBox="0 0 38 38" fill="none" xmlns="http://www.w3.org/2000/svg">
<path fill-rule="evenodd" clip-rule="evenodd" d="M0 30C0 34.4183 3.58172 38 8 38H30C34.4183 38 38 34.4183 38 30V8C38 3.58172 34.4183 0 30 0H8C3.58172 0 0 3.58172 0 8V30Z" fill="#15171F"/>
<path fill-rule="evenodd" clip-rule="evenodd" d="M27.7941 21.4405C25.9141 19.6965 26.1661 19.9785 28.4301 16.9615C29.8091 15.1235 30.3591 14.0015 30.1881 13.5205C30.0231 13.0625 29.0101 13.1835 29.0101 13.1835L25.6351 13.2055C25.6351 13.2055 25.3841 13.1705 25.1991 13.2815C25.0181 13.3905 24.9001 13.6435 24.9001 13.6435C24.9001 13.6435 24.3661 15.0655 23.6541 16.2755C22.1511 18.8275 21.5511 18.9615 21.3051 18.8025C20.7331 18.4335 20.8761 17.3205 20.8761 16.5285C20.8761 14.0545 21.2521 13.0245 20.1461 12.7565C19.7791 12.6695 19.5091 12.6105 18.5701 12.6005C17.3661 12.5875 16.3481 12.6045 15.7711 12.8865C15.3871 13.0755 15.0901 13.4945 15.2711 13.5175C15.4941 13.5475 15.9991 13.6545 16.2671 14.0185C16.6121 14.4895 16.6011 15.5455 16.6011 15.5455C16.6011 15.5455 16.7991 18.4575 16.1371 18.8185C15.6821 19.0665 15.0581 18.5605 13.7181 16.2455C13.0311 15.0595 12.5131 13.7485 12.5131 13.7485C12.5131 13.7485 12.4131 13.5035 12.2341 13.3725C12.0191 13.2125 11.7171 13.1635 11.7171 13.1635L8.5091 13.1835C8.5091 13.1835 8.0271 13.1975 7.8511 13.4065C7.6931 13.5925 7.8381 13.9785 7.8381 13.9785C7.8381 13.9785 10.3491 19.8525 13.1921 22.8125C15.7991 25.5275 18.7601 25.3485 18.7601 25.3485H20.1011C20.1011 25.3485 20.5061 25.3035 20.7131 25.0815C20.9031 24.8765 20.8981 24.4925 20.8981 24.4925C20.8981 24.4925 20.8711 22.6915 21.7061 22.4265C22.5301 22.1655 23.5881 24.1665 24.7091 24.9355C25.5571 25.5175 26.2001 25.3905 26.2001 25.3905L29.1981 25.3485C29.1981 25.3485 30.7661 25.2525 30.0231 24.0195C29.9621 23.9185 29.5891 23.1075 27.7941 21.4405Z" fill="white"/>
</svg>
